<svg width="17" height="15" viewBox="0 0 17 15" fill="none" xmlns="http://www.w3.org/2000/svg">
<g clip-path="url(#clip0_268_16788)">
<path d="M11.3126 1.51855H5.34965C3.70302 1.51855 2.36816 2.84512 2.36816 4.48152V10.4074C2.36816 12.0438 3.70302 13.3704 5.34965 13.3704H11.3126C12.9592 13.3704 14.2941 12.0438 14.2941 10.4074V4.48152C14.2941 2.84512 12.9592 1.51855 11.3126 1.51855Z" stroke="white" stroke-width="1.33333" stroke-linecap="round" stroke-linejoin="round"/>
<path d="M10.7169 7.07151C10.7905 7.56469 10.7057 8.06837 10.4747 8.51092C10.2436 8.95347 9.87802 9.31234 9.42989 9.5365C8.98177 9.76065 8.47393 9.83867 7.9786 9.75947C7.48328 9.68026 7.02571 9.44785 6.67096 9.0953C6.31621 8.74276 6.08235 8.28802 6.00265 7.79578C5.92294 7.30354 6.00145 6.79885 6.22701 6.35351C6.45256 5.90816 6.81368 5.54483 7.25899 5.31521C7.70431 5.08558 8.21114 5.00134 8.70741 5.07447C9.21362 5.14907 9.68226 5.38349 10.0441 5.7431C10.406 6.10271 10.6419 6.56844 10.7169 7.07151Z" stroke="white" stroke-width="1.33333" stroke-linecap="round" stroke-linejoin="round"/>
<path d="M11.6112 4.18506H11.6182" stroke="white" stroke-width="1.33333" stroke-linecap="round" stroke-linejoin="round"/>
</g>
<defs>
<clipPath id="clip0_268_16788">
<rect width="16" height="14.2222" fill="white" transform="translate(0.555786 0.333496)"/>
</clipPath>
</defs>
</svg>
