<svg width="16" height="15" viewBox="0 0 16 15" fill="none" xmlns="http://www.w3.org/2000/svg">
<g clip-path="url(#clip0_268_16792)">
<path d="M9.00856 5.07373C9.95745 5.07373 10.8675 5.44833 11.5384 6.11513C12.2094 6.78192 12.5863 7.68629 12.5863 8.62929V12.7774H10.2012V8.62929C10.2012 8.31495 10.0755 8.0135 9.85185 7.79123C9.6282 7.56897 9.32486 7.4441 9.00856 7.4441C8.69227 7.4441 8.38893 7.56897 8.16527 7.79123C7.94162 8.0135 7.81597 8.31495 7.81597 8.62929V12.7774H5.43079V8.62929C5.43079 7.68629 5.80773 6.78192 6.47869 6.11513C7.14966 5.44833 8.05968 5.07373 9.00856 5.07373Z" fill="white"/>
<path d="M3.04516 5.66699H0.659973V12.7781H3.04516V5.66699Z" fill="white"/>
<path d="M1.85257 3.88892C2.51122 3.88892 3.04516 3.3583 3.04516 2.70374C3.04516 2.04918 2.51122 1.51855 1.85257 1.51855C1.19391 1.51855 0.659973 2.04918 0.659973 2.70374C0.659973 3.3583 1.19391 3.88892 1.85257 3.88892Z" fill="white"/>
</g>
<defs>
<clipPath id="clip0_268_16792">
<rect width="14.331" height="14.2222" fill="white" transform="translate(0.750244 0.333496)"/>
</clipPath>
</defs>
</svg>
