<svg width="16" height="15" viewBox="0 0 16 15" fill="none" xmlns="http://www.w3.org/2000/svg">
<g clip-path="url(#clip0_268_16796)">
<path d="M13.174 2.11094C12.603 2.51122 11.9707 2.81737 11.3016 3.01761C10.9425 2.60724 10.4652 2.31639 9.93434 2.18438C9.40346 2.05237 8.84459 2.08557 8.33331 2.2795C7.82204 2.47343 7.38303 2.81873 7.07567 3.2687C6.7683 3.71866 6.6074 4.25158 6.61474 4.79538V5.38798C5.56683 5.41498 4.52846 5.18401 3.59212 4.71565C2.65578 4.24728 1.85052 3.55606 1.24807 2.70353C1.24807 2.70353 -1.13711 8.03687 4.22955 10.4072C3.0015 11.2357 1.53856 11.651 0.055481 11.5924C5.42215 14.5554 11.9814 11.5924 11.9814 4.77761C11.9809 4.61254 11.9649 4.44788 11.9337 4.28575C12.5423 3.68931 12.9718 2.93625 13.174 2.11094Z" fill="white"/>
</g>
<defs>
<clipPath id="clip0_268_16796">
<rect width="14.331" height="14.2222" fill="white" transform="translate(0.791931 0.333496)"/>
</clipPath>
</defs>
</svg>
